<?xml version="1.0" standalone="no"?>
<!DOCTYPE svg PUBLIC "-//W3C//DTD SVG 20010904//EN"
 "http://www.w3.org/TR/2001/REC-SVG-20010904/DTD/svg10.dtd">
<svg version="1.0" xmlns="http://www.w3.org/2000/svg"
 width="765.000000pt" height="711.000000pt" viewBox="0 0 765.000000 711.000000"
 preserveAspectRatio="xMidYMid meet">

<g transform="translate(0.000000,711.000000) scale(0.100000,-0.100000)"
fill="#000000" stroke="none">
<path d="M480 5585 l0 -1094 30 -34 c51 -58 118 -81 240 -82 97 0 109 2 165
30 37 19 69 43 83 64 l22 34 0 884 0 884 33 -26 c17 -14 139 -109 270 -212
l237 -185 0 -47 c0 -27 8 -58 18 -76 26 -42 105 -82 189 -96 60 -10 82 -9 149
6 133 30 184 77 184 173 l0 48 137 105 c75 57 166 127 201 154 35 28 92 71
126 97 l61 48 5 -1133 5 -1132 148 -215 c82 -118 178 -259 215 -312 37 -54 70
-98 73 -98 4 0 65 81 135 180 71 100 137 190 147 202 21 26 21 30 -1 59 -11
13 -54 76 -98 139 l-79 115 4 1286 c2 707 0 1296 -4 1307 -6 22 -7 22 -343 22
l-337 0 -35 -28 c-31 -26 -511 -396 -602 -465 l-37 -28 -325 260 -326 261
-345 0 -345 0 0 -1095z"/>
<path d="M4964 4711 c-53 -14 -117 -55 -141 -90 -23 -33 -23 -39 -23 -298 l0
-264 -43 -62 c-24 -34 -69 -100 -101 -146 l-58 -83 139 -206 c77 -113 144
-207 150 -209 5 -2 53 61 107 139 53 79 120 177 149 218 29 41 87 124 127 183
l75 109 0 298 c0 342 4 328 -94 383 -48 27 -64 31 -155 33 -55 2 -115 0 -132
-5z"/>
<path d="M3899 4291 c-91 -19 -115 -44 -330 -343 -111 -156 -252 -352 -313
-436 -61 -85 -118 -163 -126 -175 -8 -12 -120 -168 -248 -346 -128 -178 -238
-333 -244 -345 -8 -14 -14 -112 -16 -304 l-4 -283 23 -26 c13 -14 48 -37 78
-50 104 -47 281 -29 349 35 l29 27 6 199 c4 110 7 232 7 273 l0 74 163 227
c244 339 446 621 486 678 104 146 179 250 202 277 l26 31 50 -75 c46 -69 94
-141 338 -499 51 -74 169 -249 263 -388 l172 -252 0 -918 c0 -957 1 -967 43
-1047 80 -153 310 -274 577 -304 122 -13 1018 -8 1100 7 132 24 255 73 354
141 60 42 134 125 159 179 l22 47 3 950 c2 687 -1 957 -9 977 -15 36 -62 71
-123 91 -102 35 -224 13 -298 -52 l-43 -39 -5 -945 c-5 -927 -5 -945 -25 -967
-11 -13 -38 -34 -60 -49 l-40 -26 -510 0 -510 0 -54 30 c-94 52 -86 -44 -86
1015 l0 935 -66 95 c-64 93 -257 378 -554 817 -516 765 -478 714 -560 749 -42
17 -174 26 -226 15z"/>
<path d="M3555 3104 c-77 -107 -144 -200 -148 -207 -10 -14 279 -445 340 -509
58 -60 120 -81 238 -81 156 -1 214 33 317 183 24 36 90 131 146 212 56 81 102
150 102 153 0 13 -283 424 -289 421 -3 -3 -65 -90 -136 -195 -72 -104 -133
-189 -137 -188 -7 2 -19 19 -183 260 -55 80 -102 146 -105 147 -3 0 -68 -88
-145 -196z"/>
</g>
</svg>
